<?xml version="1.0" standalone="no"?>
<!DOCTYPE svg PUBLIC "-//W3C//DTD SVG 20010904//EN"
 "http://www.w3.org/TR/2001/REC-SVG-20010904/DTD/svg10.dtd">
<svg version="1.0" xmlns="http://www.w3.org/2000/svg"
 width="491.000000pt" height="277.000000pt" viewBox="0 0 491.000000 277.000000"
 preserveAspectRatio="xMidYMid meet">

<g transform="translate(0.000000,277.000000) scale(0.100000,-0.100000)"
fill="#000000" stroke="none">
<path d="M1920 1834 c-580 -23 -1025 -58 -1535 -120 -227 -28 -254 -36 -292
-94 l-23 -33 0 -636 0 -636 24 -36 c14 -20 40 -43 58 -51 52 -25 626 -90 1078
-122 449 -33 663 -38 1370 -33 817 5 1098 21 1775 98 405 46 407 46 450 120
19 33 20 55 23 629 4 664 2 680 -54 729 -37 33 -44 35 -144 51 -82 13 -113 13
-105 0 4 -6 -5 -7 -23 -4 -23 5 -33 1 -46 -17 l-16 -23 0 31 c0 36 -7 38 -115
49 -58 5 -68 4 -57 -7 18 -19 15 -28 -8 -22 -11 3 -20 0 -20 -6 0 -6 -4 -11
-10 -11 -5 0 -10 6 -10 14 0 8 -6 17 -12 19 -10 4 -9 8 2 16 12 9 11 11 -7 11
-12 0 -23 -6 -26 -12 -3 -10 -8 -9 -18 3 -9 11 -36 19 -79 22 -58 5 -63 4 -46
-9 11 -8 29 -14 39 -14 15 0 17 -3 8 -13 -8 -10 -7 -17 1 -25 9 -9 7 -12 -9
-12 -12 0 -24 -6 -26 -12 -3 -8 -6 -6 -6 5 -1 9 -8 17 -16 17 -8 0 -15 5 -15
10 0 6 5 10 10 10 6 0 10 6 10 14 0 17 -33 31 -38 17 -5 -16 -22 -13 -22 4 0
22 -16 18 -34 -6 -13 -19 -13 -24 2 -47 l16 -24 -31 6 c-26 6 -32 4 -38 -13
-9 -29 -25 -26 -25 4 0 18 -8 29 -27 36 l-28 11 28 10 c17 6 27 17 27 29 0 39
-29 17 -81 -62 -60 -92 -67 -90 -68 23 -1 77 -3 79 -93 77 -31 -1 -62 2 -69 6
-9 6 -11 4 -6 -8 4 -11 2 -14 -8 -11 -24 9 -36 -5 -25 -27 6 -10 9 -19 8 -19
-2 0 -26 6 -55 14 l-52 14 -28 -44 c-15 -24 -31 -44 -35 -44 -5 0 -8 25 -8 55
l0 54 -42 11 c-24 6 -60 16 -81 23 -29 8 -43 8 -57 -1 -14 -8 -20 -8 -22 0 -3
8 -169 12 -578 13 -316 1 -613 1 -660 -1z m1724 -90 c5 -12 14 -15 36 -10 32
6 38 -2 18 -22 -10 -10 -10 -17 0 -32 17 -28 15 -33 -10 -26 -17 4 -28 -1 -40
-17 l-18 -22 0 27 c0 21 -6 29 -25 34 -30 7 -32 20 -5 27 14 3 20 14 20 31 0
29 14 35 24 10z m-571 -59 c15 -19 16 -19 64 -2 26 9 51 17 55 17 4 0 -7 -20
-24 -45 -23 -33 -30 -50 -23 -59 6 -8 21 -29 34 -47 l25 -32 -25 7 c-78 22
-85 21 -116 -25 l-28 -43 -5 54 -5 54 -55 17 -55 17 35 15 c19 8 43 17 53 20
13 5 17 18 17 64 l1 58 19 -25 c10 -14 25 -34 33 -45z m1117 -2 c21 5 28 -7
10 -18 -7 -4 -7 -13 0 -26 9 -16 7 -19 -8 -19 -10 0 -23 -5 -30 -12 -9 -9 -12
-8 -12 5 0 10 -10 22 -22 26 -20 8 -21 10 -5 16 10 4 17 18 17 34 1 25 1 25
15 7 9 -12 22 -17 35 -13z m-894 -26 c-1 -17 -6 -25 -13 -22 -7 2 -17 -4 -22
-13 -10 -16 -10 -16 -11 1 0 10 -6 20 -14 23 -20 8 12 39 40 39 16 0 21 -6 20
-28z m222 13 c27 0 24 -44 -4 -57 -19 -9 -24 -8 -24 2 0 8 -8 19 -17 24 -17
10 -17 10 0 11 11 0 17 8 18 23 0 12 3 16 6 10 2 -7 12 -13 21 -13z m560 -16
c5 3 9 -8 9 -24 0 -16 -4 -27 -9 -24 -5 3 -15 0 -23 -6 -12 -10 -15 -9 -15 4
0 9 -8 16 -17 16 -17 1 -17 1 0 14 9 7 17 19 17 26 0 10 3 10 15 0 8 -6 18 -9
23 -6z m-417 -41 c44 17 47 13 19 -23 -11 -14 -20 -29 -20 -35 0 -5 9 -21 20
-35 27 -35 25 -40 -15 -27 -47 14 -53 4 -23 -35 42 -57 42 -58 4 -58 -35 0
-36 1 -36 37 0 35 0 36 -20 18 -20 -18 -20 -17 -20 23 0 40 -1 42 -42 53 l-43
12 40 17 c38 16 39 18 37 61 l-3 44 32 -34 31 -33 39 15z m323 7 c15 0 17 -3
8 -12 -8 -8 -8 -15 -2 -24 17 -20 -33 -22 -52 -2 -10 10 -13 18 -8 18 6 0 10
10 10 22 0 17 3 19 12 10 7 -7 21 -12 32 -12z m439 -7 c10 4 14 -2 13 -24 -1
-17 -6 -27 -12 -25 -6 3 -17 -1 -23 -7 -8 -8 -11 -7 -11 6 0 9 -8 17 -17 17
-17 1 -17 1 0 11 9 5 17 18 17 27 0 14 2 14 9 3 5 -8 16 -11 24 -8z m-658 -49
c0 -15 -5 -22 -12 -20 -7 3 -17 -3 -22 -12 -10 -16 -10 -16 -11 1 0 10 -6 20
-14 23 -12 5 -12 8 2 23 24 24 57 16 57 -15z m473 -29 c24 10 45 16 47 13 3
-2 -7 -22 -22 -43 l-26 -39 21 -37 22 -37 -33 6 c-17 3 -50 5 -72 5 -22 0 -44
5 -50 11 -5 7 -30 19 -55 26 l-45 13 48 20 47 19 0 57 0 56 38 -43 37 -44 43
17z m-292 -15 c36 14 37 13 18 -20 -17 -28 -17 -30 1 -50 19 -21 19 -21 -8
-15 -20 5 -33 2 -47 -10 -19 -17 -20 -17 -20 4 0 12 -6 23 -12 25 -52 16 -54
18 -25 29 22 9 27 17 27 45 l0 35 20 -26 c18 -22 25 -25 46 -17z m-514 -20
c19 0 24 -15 8 -25 -6 -4 -10 -98 -9 -253 0 -136 4 -236 8 -222 24 77 72 131
146 166 71 34 199 34 270 0 89 -41 140 -119 152 -228 l6 -58 -197 0 c-191 0
-196 0 -196 -21 0 -25 18 -60 39 -76 26 -20 114 -16 144 7 21 16 40 20 111 20
90 0 95 -3 75 -43 -6 -12 26 18 72 67 46 49 85 92 87 95 1 3 -45 60 -103 126
l-106 120 118 3 118 3 50 -56 50 -57 48 56 48 56 120 0 c65 0 119 -3 119 -6 0
-3 -46 -55 -102 -116 -57 -60 -104 -115 -105 -121 -2 -7 53 -73 121 -147 l124
-135 -116 -5 c-133 -6 -116 -14 -213 99 l-45 53 -64 -73 -63 -74 -96 -5 c-53
-3 -109 -4 -124 -2 -28 3 -28 4 -11 23 15 17 8 15 -36 -8 -48 -25 -64 -28
-150 -28 -78 0 -104 4 -146 23 -65 29 -109 75 -134 138 l-19 49 -1 -97 0 -98
-64 0 c-35 0 -78 -3 -95 -6 l-31 -6 0 88 c-1 83 -2 87 -14 58 -20 -46 -74
-103 -119 -125 -78 -40 -212 -34 -253 12 -9 11 -21 19 -26 19 -4 0 -8 -70 -8
-155 l0 -156 -92 3 -93 3 3 395 3 395 92 0 92 0 -2 -29 -2 -29 27 26 c15 14
40 31 55 36 40 15 141 14 181 -3 48 -20 104 -73 131 -125 l24 -46 1 248 0 247
75 0 c52 0 75 4 75 12 0 9 3 9 12 0 7 -7 20 -12 30 -12z m-2400 -64 c3 52 5
59 26 62 22 3 22 2 22 -120 l0 -122 -70 69 -70 69 0 -57 c0 -54 -1 -57 -25
-57 l-25 0 0 117 0 117 69 -68 70 -69 3 59z m-561 54 c25 -14 27 -66 2 -55
-10 5 -32 10 -49 12 -56 8 -86 -65 -44 -107 24 -24 63 -26 80 -5 20 24 32 17
28 -17 -4 -41 -42 -56 -100 -39 -67 20 -97 96 -63 161 26 51 98 75 146 50z
m227 -102 l3 -108 -26 0 -25 0 0 111 c0 109 0 110 23 107 21 -3 22 -8 25 -110z
m702 87 c0 -22 -4 -25 -40 -25 -29 0 -40 -4 -40 -15 0 -11 11 -15 40 -15 36 0
40 -2 40 -25 0 -23 -4 -25 -41 -25 -36 0 -40 -2 -37 -22 2 -19 10 -24 41 -26
29 -3 37 -7 37 -23 0 -17 -7 -19 -65 -19 l-65 0 0 103 c0 57 3 107 7 110 3 4
33 7 65 7 55 0 58 -1 58 -25z m301 5 c23 -19 23 -21 5 -34 -14 -12 -22 -12
-37 -3 -10 6 -22 8 -26 3 -4 -5 0 -13 11 -20 53 -32 66 -48 66 -81 0 -36 -36
-75 -70 -75 -25 0 -70 38 -70 60 0 16 18 30 40 30 4 0 10 -9 13 -21 6 -24 30
-21 35 4 2 10 -9 22 -30 33 -40 20 -48 31 -48 66 0 52 68 75 111 38z m329
-405 l0 -425 -64 0 c-35 0 -78 -3 -95 -6 l-31 -7 0 432 0 431 95 0 95 0 0
-425z m545 383 c57 -50 48 -138 -17 -173 -34 -18 -40 -19 -80 -5 -57 20 -86
72 -68 125 24 72 111 100 165 53z m1285 -48 c0 -5 -8 -10 -17 -10 -15 0 -16 2
-3 10 19 12 20 12 20 0z m-1568 -152 l3 -83 53 3 52 3 0 -80 0 -81 -55 0 -55
0 0 -184 0 -183 -87 -5 c-49 -3 -91 -3 -95 -1 -5 2 -8 87 -8 189 l0 184 -30 0
-31 0 3 78 c3 76 3 77 31 80 27 3 27 4 27 76 0 40 3 76 7 79 3 4 46 7 94 7
l88 0 3 -82z m-1522 -88 c22 -11 47 -32 56 -46 l17 -25 36 35 c45 44 78 56
149 56 80 0 121 -23 152 -85 24 -47 25 -60 29 -252 l3 -203 -76 -2 c-42 -1
-86 -2 -98 -2 -23 -1 -23 0 -28 182 -5 169 -7 185 -25 198 -31 23 -84 14 -109
-19 -19 -26 -21 -44 -24 -191 l-4 -164 -86 -4 c-48 -3 -90 -3 -94 -1 -5 2 -8
75 -8 162 0 87 -5 172 -11 189 -14 41 -57 59 -95 40 -48 -22 -54 -48 -54 -224
l0 -162 -87 -4 c-49 -2 -91 -3 -95 -1 -5 2 -8 123 -8 269 l0 264 95 0 95 0 0
-32 0 -31 23 21 c60 56 171 71 247 32z m662 -170 c4 -210 6 -215 89 -215 41 0
54 4 70 24 17 21 19 41 19 197 l0 175 97 -3 96 -3 -2 -190 c-3 -204 -9 -236
-58 -287 -45 -47 -104 -63 -228 -62 -125 0 -182 18 -228 73 -40 48 -47 90 -47
289 l0 182 94 0 95 0 3 -180z m1169 -85 c-1 -143 -3 -260 -4 -261 -1 -1 -42
-3 -92 -5 l-90 -4 -3 268 -2 268 96 -3 97 -3 -2 -260z m339 -465 c0 -43 3 -50
20 -50 14 0 22 11 29 38 6 20 11 43 11 50 0 8 6 12 12 10 13 -5 41 -108 32
-118 -3 -3 -12 4 -20 14 -11 16 -14 17 -19 4 -4 -9 -21 -15 -45 -16 l-40 -2 0
60 c0 33 4 60 10 60 6 0 10 -22 10 -50z m207 35 c3 -9 2 -19 -2 -23 -4 -4 -10
-1 -12 6 -9 25 -23 11 -23 -24 0 -31 2 -35 21 -29 17 6 20 3 17 -12 -2 -12
-12 -18 -28 -18 -22 0 -25 5 -28 44 -2 24 -1 50 2 57 7 19 45 18 53 -1z m56 1
c13 -34 19 -106 8 -106 -6 0 -11 7 -11 15 0 8 -4 15 -10 15 -5 0 -10 -7 -10
-15 0 -8 -5 -15 -11 -15 -11 0 -5 72 8 106 7 18 19 18 26 0z m82 -46 c0 -53
-1 -55 -27 -58 -28 -3 -28 -3 -28 58 0 61 0 61 28 58 26 -3 27 -5 27 -58z m75
50 c0 -5 -7 -10 -15 -10 -8 0 -15 -7 -15 -15 0 -8 7 -15 15 -15 8 0 15 -4 15
-10 0 -5 -7 -10 -15 -10 -8 0 -15 -7 -15 -15 0 -8 7 -15 15 -15 8 0 15 -4 15
-10 0 -5 -11 -10 -25 -10 -24 0 -25 3 -25 60 0 57 1 60 25 60 14 0 25 -4 25
-10z m40 -12 l9 -23 0 23 c1 12 6 22 11 22 6 0 10 -27 10 -60 0 -65 -10 -76
-27 -32 l-11 27 -1 -27 c-2 -56 -21 -26 -21 32 0 62 13 78 30 38z m99 -34 c13
-57 7 -83 -11 -51 -9 18 -10 18 -23 0 -20 -27 -25 -13 -14 37 19 90 31 93 48
14z m108 -5 c13 -58 9 -74 -12 -46 -13 18 -14 18 -23 0 -18 -32 -24 -6 -11 52
7 31 17 54 23 52 6 -2 16 -28 23 -58z m74 51 c1 -5 2 -32 3 -60 1 -53 -9 -65
-24 -27 l-9 22 0 -22 c-1 -13 -5 -23 -11 -23 -6 0 -10 27 -10 60 0 57 1 60 25
60 14 0 26 -4 26 -10z m76 -5 c3 -9 2 -19 -2 -23 -4 -4 -10 -1 -12 6 -7 19
-23 14 -23 -7 0 -14 5 -18 21 -14 18 5 20 2 17 -28 -2 -29 -7 -34 -28 -34 -22
0 -25 5 -28 44 -2 24 -1 50 2 57 7 19 45 18 53 -1z m73 5 c0 -5 -7 -10 -15
-10 -18 0 -20 -26 -2 -34 10 -5 10 -7 0 -12 -18 -8 -16 -34 2 -34 8 0 15 -4
15 -10 0 -5 -13 -10 -30 -10 l-30 0 0 60 0 60 30 0 c17 0 30 -4 30 -10z m38
-12 l11 -23 0 23 c1 12 6 22 11 22 6 0 10 -27 10 -60 0 -63 -9 -76 -28 -37
l-11 22 0 -22 c-1 -13 -5 -23 -11 -23 -6 0 -10 27 -10 60 0 63 9 76 28 38z
m132 -40 c0 -73 -23 -77 -28 -5 -4 63 -22 60 -22 -3 0 -27 -4 -50 -10 -50 -5
0 -10 23 -10 50 0 28 -4 50 -10 50 -5 0 -10 5 -10 10 0 6 20 9 45 8 l45 -1 0
-59z m40 40 l9 -23 0 23 c1 12 6 22 11 22 6 0 10 -27 10 -60 0 -65 -10 -76
-27 -32 l-11 27 -1 -27 c-2 -56 -21 -26 -21 32 0 62 13 78 30 38z m99 -34 c13
-57 7 -83 -11 -51 -9 18 -10 18 -23 0 -20 -27 -25 -13 -14 37 19 90 31 93 48
14z m106 -4 c0 -52 -1 -55 -25 -55 -22 0 -25 5 -28 44 -4 57 3 73 30 69 21 -3
23 -9 23 -58z m75 50 c0 -5 -7 -10 -15 -10 -8 0 -15 -7 -15 -15 0 -8 7 -15 15
-15 8 0 15 -4 15 -10 0 -5 -7 -10 -15 -10 -8 0 -15 -7 -15 -15 0 -8 7 -15 15
-15 8 0 15 -4 15 -10 0 -5 -11 -10 -25 -10 -24 0 -25 3 -25 60 0 57 1 60 25
60 14 0 25 -4 25 -10z m104 -6 c9 -23 0 -29 -19 -14 -13 11 -15 7 -15 -30 0
-37 2 -41 15 -30 22 18 32 3 13 -17 -28 -28 -48 -9 -48 45 0 27 3 52 7 55 12
13 41 7 47 -9z m36 -44 c0 -33 -4 -60 -10 -60 -6 0 -10 27 -10 60 0 33 4 60
10 60 6 0 10 -27 10 -60z m48 38 l11 -23 0 23 c1 12 6 22 11 22 6 0 10 -27 10
-60 0 -63 -9 -76 -28 -37 l-11 22 0 -22 c-1 -13 -5 -23 -11 -23 -6 0 -10 27
-10 60 0 63 9 76 28 38z m102 12 c0 -5 -7 -10 -15 -10 -8 0 -15 -7 -15 -15 0
-8 7 -15 15 -15 8 0 15 -4 15 -10 0 -5 -7 -10 -15 -10 -8 0 -15 -7 -15 -15 0
-8 7 -15 15 -15 8 0 15 -5 15 -11 0 -6 -12 -9 -27 -7 -25 3 -28 7 -31 47 -2
24 -1 50 2 57 6 16 56 19 56 4z m67 -5 c8 -21 -6 -33 -17 -15 -5 8 -12 11 -17
7 -4 -5 3 -16 16 -26 19 -14 22 -24 17 -45 -4 -17 -13 -26 -27 -26 -21 0 -37
26 -24 38 4 4 10 1 12 -6 3 -6 9 -10 14 -6 15 9 10 22 -11 29 -19 6 -28 44
-13 58 12 13 44 7 50 -8z"/>
<path d="M3669 1056 c-14 -8 -30 -26 -37 -40 l-12 -26 105 0 c59 0 105 4 105
9 0 6 -10 22 -23 36 -28 33 -98 43 -138 21z"/>
<path d="M2883 1016 c-57 -26 -80 -105 -48 -167 19 -35 50 -49 111 -49 37 0
51 6 75 29 24 25 29 37 29 80 0 41 -5 56 -27 81 -33 37 -91 48 -140 26z"/>
<path d="M3263 440 c0 -25 2 -35 4 -22 2 12 2 32 0 45 -2 12 -4 2 -4 -23z"/>
<path d="M3651 464 c0 -11 3 -14 6 -6 3 7 2 16 -1 19 -3 4 -6 -2 -5 -13z"/>
<path d="M3720 414 c0 -8 5 -12 10 -9 6 3 10 10 10 16 0 5 -4 9 -10 9 -5 0
-10 -7 -10 -16z"/>
<path d="M4223 440 c0 -25 2 -35 4 -22 2 12 2 32 0 45 -2 12 -4 2 -4 -23z"/>
<path d="M3908 1768 c8 -8 17 -8 34 0 22 10 21 11 -11 11 -27 1 -32 -2 -23
-11z"/>
</g>
</svg>
